<svg xmlns="http://www.w3.org/2000/svg" xmlns:xlink="http://www.w3.org/1999/xlink" width="108" height="38" version="1.1" viewBox="0 0 108 38"><defs><radialGradient id="radialGradient-1" cx="155.093%" cy="-8.843%" r="200.192%" fx="155.093%" fy="-8.843%" gradientTransform="translate(1.550927,-0.088427),scale(1.000000,0.792631),translate(-1.550927,0.088427)"><stop offset="0%" stop-color="#F7BFA4"/><stop offset="1.131%" stop-color="#F7BB9F"/><stop offset="42.7%" stop-color="#E60012"/><stop offset="66.28%" stop-color="#E50012"/><stop offset="75.74%" stop-color="#E10011"/><stop offset="82.68%" stop-color="#DA0010"/><stop offset="88.38%" stop-color="#CF000E"/><stop offset="93.31%" stop-color="#C00009"/><stop offset="97.65%" stop-color="#AE0003"/><stop offset="100%" stop-color="#A00000"/></radialGradient><radialGradient id="radialGradient-2" cx="173.277%" cy="-532.24%" r="693.121%" fx="173.277%" fy="-532.24%" gradientTransform="translate(1.732768,-5.322396),scale(0.334419,1.000000),translate(-1.732768,5.322396)"><stop offset="0%" stop-color="#F7BFA4"/><stop offset="1.131%" stop-color="#F7BB9F"/><stop offset="42.7%" stop-color="#E60012"/><stop offset="66.28%" stop-color="#E50012"/><stop offset="75.74%" stop-color="#E10011"/><stop offset="82.68%" stop-color="#DA0010"/><stop offset="88.38%" stop-color="#CF000E"/><stop offset="93.31%" stop-color="#C00009"/><stop offset="97.65%" stop-color="#AE0003"/><stop offset="100%" stop-color="#A00000"/></radialGradient><radialGradient id="radialGradient-3" cx="154.911%" cy="-124.457%" r="304.433%" fx="154.911%" fy="-124.457%" gradientTransform="translate(1.549108,-1.244569),scale(0.582812,1.000000),translate(-1.549108,1.244569)"><stop offset="0%" stop-color="#F7BFA4"/><stop offset="1.131%" stop-color="#F7BB9F"/><stop offset="42.7%" stop-color="#E60012"/><stop offset="66.28%" stop-color="#E50012"/><stop offset="75.74%" stop-color="#E10011"/><stop offset="82.68%" stop-color="#DA0010"/><stop offset="88.38%" stop-color="#CF000E"/><stop offset="93.31%" stop-color="#C00009"/><stop offset="97.65%" stop-color="#AE0003"/><stop offset="100%" stop-color="#A00000"/></radialGradient><radialGradient id="radialGradient-4" cx="10.587%" cy="-531.331%" r="692.203%" fx="10.587%" fy="-531.331%" gradientTransform="translate(0.105868,-5.313307),scale(0.335532,1.000000),translate(-0.105868,5.313307)"><stop offset="0%" stop-color="#F7BFA4"/><stop offset="1.131%" stop-color="#F7BB9F"/><stop offset="42.7%" stop-color="#E60012"/><stop offset="66.28%" stop-color="#E50012"/><stop offset="75.74%" stop-color="#E10011"/><stop offset="82.68%" stop-color="#DA0010"/><stop offset="88.38%" stop-color="#CF000E"/><stop offset="93.31%" stop-color="#C00009"/><stop offset="97.65%" stop-color="#AE0003"/><stop offset="100%" stop-color="#A00000"/></radialGradient><radialGradient id="radialGradient-5" cx="17.285%" cy="-8.989%" r="200.715%" fx="17.285%" fy="-8.989%" gradientTransform="translate(0.172855,-0.089892),scale(1.000000,0.792389),translate(-0.172855,0.089892)"><stop offset="0%" stop-color="#F7BFA4"/><stop offset="1.131%" stop-color="#F7BB9F"/><stop offset="42.7%" stop-color="#E60012"/><stop offset="66.28%" stop-color="#E50012"/><stop offset="75.74%" stop-color="#E10011"/><stop offset="82.68%" stop-color="#DA0010"/><stop offset="88.38%" stop-color="#CF000E"/><stop offset="93.31%" stop-color="#C00009"/><stop offset="97.65%" stop-color="#AE0003"/><stop offset="100%" stop-color="#A00000"/></radialGradient><radialGradient id="radialGradient-6" cx="54.226%" cy="16.234%" r="335.684%" fx="54.226%" fy="16.234%" gradientTransform="translate(0.542265,0.162340),scale(1.000000,0.383413),translate(-0.542265,-0.162340)"><stop offset="0%" stop-color="#F7BFA4"/><stop offset="1.131%" stop-color="#F7BB9F"/><stop offset="42.7%" stop-color="#E60012"/><stop offset="66.28%" stop-color="#E50012"/><stop offset="75.74%" stop-color="#E10011"/><stop offset="82.68%" stop-color="#DA0010"/><stop offset="88.38%" stop-color="#CF000E"/><stop offset="93.31%" stop-color="#C00009"/><stop offset="97.65%" stop-color="#AE0003"/><stop offset="100%" stop-color="#A00000"/></radialGradient><radialGradient id="radialGradient-7" cx="167.227%" cy="16.555%" r="335.648%" fx="167.227%" fy="16.555%" gradientTransform="translate(1.672265,0.165547),scale(1.000000,0.383353),translate(-1.672265,-0.165547)"><stop offset="0%" stop-color="#F7BFA4"/><stop offset="1.131%" stop-color="#F7BB9F"/><stop offset="42.7%" stop-color="#E60012"/><stop offset="66.28%" stop-color="#E50012"/><stop offset="75.74%" stop-color="#E10011"/><stop offset="82.68%" stop-color="#DA0010"/><stop offset="88.38%" stop-color="#CF000E"/><stop offset="93.31%" stop-color="#C00009"/><stop offset="97.65%" stop-color="#AE0003"/><stop offset="100%" stop-color="#A00000"/></radialGradient><radialGradient id="radialGradient-8" cx="9.185%" cy="-124.191%" r="304.514%" fx="9.185%" fy="-124.191%" gradientTransform="translate(0.091848,-1.241907),scale(0.582934,1.000000),translate(-0.091848,1.241907)"><stop offset="0%" stop-color="#F7BFA4"/><stop offset="1.131%" stop-color="#F7BB9F"/><stop offset="42.7%" stop-color="#E60012"/><stop offset="66.28%" stop-color="#E50012"/><stop offset="75.74%" stop-color="#E10011"/><stop offset="82.68%" stop-color="#DA0010"/><stop offset="88.38%" stop-color="#CF000E"/><stop offset="93.31%" stop-color="#C00009"/><stop offset="97.65%" stop-color="#AE0003"/><stop offset="100%" stop-color="#A00000"/></radialGradient></defs><g id="页面-1" fill="none" fill-rule="evenodd" stroke="none" stroke-width="1"><g id="方案2备份" transform="translate(-330.000000, -392.000000)"><g id="Group复制-2" transform="translate(329.582031, 392.316406)"><path id="Fill-170" fill="#000" d="M55.9926902,18.0598622 C55.7879732,17.4442626 55.5330212,16.828663 55.2267011,16.2130634 C56.6555654,15.7511739 57.932214,15.3162311 59.0558913,14.9046295 L59.0558913,10.2876322 L61.1236464,10.2876322 L61.1236464,13.9814198 C62.705482,13.2637263 64.3135681,12.3148982 65.9482826,11.1341766 L67.173563,12.5963206 C65.3356423,13.8793259 63.3181222,15.0334803 61.1236464,16.0591634 L61.1236464,16.9823731 C61.0720895,17.9061521 61.5317585,18.342613 62.5020869,18.290807 L64.1103619,18.290807 C64.9263972,18.342613 65.4372454,17.9828174 65.6419624,17.2133179 C65.7435655,16.7516181 65.82024,16.0855409 65.8716081,15.2126191 C66.5860403,15.4699412 67.2502374,15.6745086 67.8628776,15.8282187 C67.7097176,16.7516181 67.5565575,17.5478746 67.4033975,18.2137622 C67.1471235,19.4967674 66.2032346,20.1123671 64.5698421,20.060561 L61.7362867,20.060561 C59.8981772,20.1641731 59.0045232,19.2910615 59.0558913,17.4442626 L59.0558913,16.9057078 C58.1367421,17.2651239 57.1150456,17.6497788 55.9926902,18.0598622 L55.9926902,18.0598622 Z M49.6362647,24.2160483 L49.6362647,22.2922046 L57.6774508,22.2922046 L57.6774508,20.2915058 L59.745206,20.2915058 L59.745206,22.2922046 L67.8628776,22.2922046 L67.8628776,24.2160483 L59.745206,24.2160483 L59.745206,28.4483907 L57.6774508,28.4483907 L57.6774508,24.2160483 L49.6362647,24.2160483 Z M50.248905,17.5213075 C50.0959338,16.8550404 49.8396598,16.1358287 49.4831047,15.366519 C51.5244204,14.0332258 53.2607379,12.2380432 54.6905465,9.9800222 L56.681816,10.7495217 C56.0176189,11.7245374 55.3284931,12.6481266 54.6140609,13.5195303 L54.6140609,20.5224505 L52.5464946,20.5224505 L52.5464946,15.597274 C51.8822974,16.2648694 51.1164972,16.9057078 50.248905,17.5213075 L50.248905,17.5213075 Z"/><g id="Group" transform="translate(0.634675, 0.177580)"><rect id="Rectangle" width="37.647" height="37.647" x="0" y="0" fill-rule="nonzero"/><g id="华为logo上下排版" transform="translate(0.588235, 0.220588)"><polygon id="Path" points="16.209 32.517 15.331 34.57 15.34 34.57 15.277 34.705 17.151 34.705 17.097 34.57 17.097 34.57"/><polygon id="Path" fill="#000" points="4.115 33.44 1.309 33.44 1.309 30.966 .063 30.966 .063 37.089 1.309 37.089 1.309 34.606 4.115 34.606 4.115 37.089 5.352 37.089 5.352 30.966 4.115 30.966"/><path id="Path" fill="#000" d="M11.1169383,34.4714741 C11.1169383,35.4666194 10.6238483,35.9955705 9.72732105,35.9955705 C8.82182849,35.9955705 8.32873848,35.4486889 8.32873848,34.4266478 L8.32873848,30.9660524 L7.08256556,30.9660524 L7.08256556,34.4714741 C7.08256556,36.1928065 8.04184975,37.1789865 9.7093905,37.1789865 C11.3948618,37.1789865 12.3631113,36.174876 12.3631113,34.4176825 L12.3631113,30.9660524 L11.1169383,30.9660524 L11.1169383,34.4714741 Z"/><polygon id="Path" fill="#000" points="25.479 35.18 24.09 30.966 23.077 30.966 21.687 35.18 20.333 30.966 19.006 30.966 21.14 37.089 22.171 37.089 23.561 33.073 24.959 37.089 25.999 37.089 28.124 30.966 26.833 30.966"/><polygon id="Path" fill="#000" points="30.356 34.454 32.616 34.454 32.616 33.342 30.356 33.342 30.356 32.087 33.638 32.087 33.638 30.966 29.128 30.966 29.128 37.089 33.754 37.089 33.754 35.969 30.356 35.969"/><rect id="Rectangle" width="1.228" height="6.114" x="35.234" y="30.966" fill="#000"/><path id="Shape" fill="#000" fill-rule="nonzero" d="M16.7740255,30.9660524 L15.6892275,30.9660524 L12.9906804,37.0893338 L14.2547838,37.0893338 L14.7747697,35.9059178 L14.8106308,35.8162651 L17.6167612,35.8162651 L18.1636428,37.0893338 L19.4636074,37.0893338 L16.7919561,31.0019135 L16.7740255,30.9660524 Z M17.150567,34.7045712 L15.2678597,34.7045712 L15.3306166,34.5611269 L15.3306166,34.5611269 L16.2092133,32.5080794 L17.0967753,34.5611269 L17.0967753,34.5611269 L17.150567,34.7045712 Z"/><path id="Path" fill="url(#radialGradient-1)" d="M4.47367116,14.523742 C7.25290574,17.2222892 13.9858257,20.6290928 15.5457831,21.4001063 C15.5637137,21.4090716 15.6444011,21.4359674 15.6981928,21.3732105 C15.6981928,21.3732105 15.7609497,21.3194189 15.7250886,21.2387314 L15.7250886,21.2387314 C11.4396882,11.9238129 5.58536499,4.85917789 5.58536499,4.85917789 C5.58536499,4.85917789 2.39372785,7.87150957 2.62682495,10.8928065 C2.74337349,13.1699858 4.47367116,14.523742 4.47367116,14.523742 Z"/><path id="Path" fill="url(#radialGradient-2)" d="M14.6492558,23.6862509 C14.62236,23.5876329 14.5058115,23.5876329 14.5058115,23.5876329 L14.5058115,23.5876329 L3.29922041,23.9731396 C4.51849752,26.1337704 6.56257973,27.8102764 8.69631467,27.2902906 C10.1666194,26.9227144 13.5017009,24.609674 14.5954642,23.8296953 L14.5954642,23.8296953 C14.6851169,23.7490078 14.6492558,23.6862509 14.6492558,23.6862509 Z"/><path id="Path" fill="url(#radialGradient-3)" d="M4.15988661,22.2966336 C5.23571935,22.735932 6.30258682,22.7628278 6.30258682,22.7628278 C6.472927,22.7897236 12.9637845,22.7628278 14.7030475,22.7538625 C14.7747697,22.7538625 14.819596,22.6821403 14.819596,22.6821403 C14.8733877,22.5924876 14.7747697,22.5118001 14.7747697,22.5118001 L14.7747697,22.5118001 C9.86180014,19.2036145 0.322749823,14.12927 0.322749823,14.12927 C-0.546881644,16.8009213 0.6275691,18.9525868 0.6275691,18.9525868 C1.83788094,21.5166549 4.15988661,22.2966336 4.15988661,22.2966336 Z"/><path id="Path" fill="url(#radialGradient-4)" d="M33.1446137,23.9731396 L21.9290574,23.5876329 L21.9290574,23.5876329 C21.9290574,23.5876329 21.8304394,23.5965982 21.8035436,23.6772856 C21.8035436,23.6772856 21.7766478,23.7759036 21.84837,23.8296953 L21.84837,23.8296953 C22.9242027,24.5917434 26.1696315,26.8599575 27.7385542,27.2992558 C27.7385542,27.2992558 30.6343373,28.2764706 33.1446137,23.9731396 Z"/><path id="Path" fill="url(#radialGradient-5)" d="M20.7456414,21.193905 C20.7456414,21.193905 20.6918498,21.3014883 20.7725372,21.3732105 C20.7725372,21.3732105 20.8532247,21.4270021 20.9249468,21.3821758 L20.9249468,21.3821758 C22.5297307,20.5842665 29.208859,17.2043586 31.9791283,14.523742 C31.9791283,14.523742 33.7273565,13.1251595 33.8259745,10.874876 C34.0232105,7.74599575 30.8674344,4.85917789 30.8674344,4.85917789 C30.8674344,4.85917789 25.0310418,11.8969171 20.7456414,21.193905 L20.7456414,21.193905 Z"/><path id="Path" fill="url(#radialGradient-6)" d="M19.1856839,20.3601347 C19.1946492,20.4587527 19.2753366,20.4856485 19.2753366,20.4856485 C19.3829199,20.5304748 19.4367116,20.4228916 19.4367116,20.4228916 L19.4367116,20.4228916 C20.5125443,18.8718994 25.3537916,11.7265769 26.3399717,7.36945429 C26.3399717,7.36945429 26.877888,5.26261517 26.3579022,3.82817151 C26.3579022,3.82817151 25.6227498,1.10272856 22.6552445,0.385506733 C22.6552445,0.385506733 21.8035436,0.170340184 20.8890858,0.0448122471 L20.8890858,0.0448122471 C20.8890858,0.0358610914 17.5719348,4.2943657 19.1856839,20.3601347 L19.1856839,20.3601347 Z"/><path id="Path" fill="url(#radialGradient-7)" d="M17.0160879,20.4408221 C17.0878101,20.5125443 17.150567,20.4856485 17.150567,20.4856485 C17.2671155,20.4497874 17.2581502,20.3422041 17.2581502,20.3422041 L17.2581502,20.3422041 C18.8718994,4.28540043 15.5637137,0.0358610914 15.5637137,0.0358610914 C15.0795889,0.0806874557 13.7616938,0.37654146 13.7616938,0.37654146 C10.7941885,1.13858965 10.0948972,3.81920624 10.0948972,3.81920624 C9.55698086,5.50467753 10.1128278,7.36048901 10.1128278,7.36048901 C11.0990078,11.7355422 15.967151,18.925691 17.0160879,20.4408221 Z"/><path id="Path" fill="url(#radialGradient-8)" d="M36.1300496,14.1113395 C36.1300496,14.1113395 26.6089298,19.2036145 21.686995,22.5118001 L21.686995,22.5118001 C21.686995,22.5118001 21.5973423,22.5655918 21.6332034,22.6731751 C21.6332034,22.6731751 21.6780298,22.7538625 21.7497519,22.7538625 L21.7497519,22.7538625 C23.5159107,22.7538625 30.1860737,22.7628278 30.3564139,22.735932 C30.3564139,22.735932 31.2170801,22.7000709 32.2839476,22.2966336 C32.2839476,22.2966336 34.6597449,21.5435507 35.8879872,18.8629341 C35.879022,18.8539688 36.9817505,16.6664422 36.1300496,14.1113395 Z"/></g></g><path id="Fill-171" fill="#000" d="M78.6938551,9.9800222 C78.593406,12.0752129 78.494247,13.6080074 78.3949038,14.5778386 L86.2426506,14.5778386 C86.1923339,15.447323 86.1176882,16.9797395 86.018345,19.1756551 C85.9178959,21.6280128 85.8432503,23.3140678 85.7940394,24.2334421 C85.743907,26.6856109 84.5235888,27.9118843 82.1317944,27.9118843 C80.9852003,27.9621522 79.7646977,27.988609 78.4695495,27.988609 C78.3202581,27.1707155 78.1449791,26.4556256 77.9464769,25.8429614 C79.1424662,25.945765 80.2634413,25.9962219 81.3097707,25.9962219 C82.9038701,26.0990255 83.701565,25.306455 83.701565,23.6203999 C83.701565,23.1608073 83.7258939,22.3941266 83.7762106,21.3216807 C83.8755539,19.1255761 83.9501995,17.5411909 84.0005162,16.5702258 L78.2454282,16.5702258 C77.8460278,21.6280128 75.3795879,25.5878421 70.8461082,28.4483907 C70.7456592,28.3453981 70.621987,28.1921375 70.4725113,27.988609 C69.9737678,27.3755668 69.5756576,26.9155962 69.2767063,26.6092641 C73.5110504,24.0550476 75.7533691,20.7084495 76.0031095,16.5702258 L69.7251332,16.5702258 L69.7251332,14.5778386 L76.2274151,14.5778386 C76.377075,13.096635 76.4517207,11.5642185 76.4517207,9.9800222 L78.6938551,9.9800222 Z M79.5160632,18.7162514 C80.6114191,19.7388073 81.6087219,20.7084495 82.5055757,21.6280128 L80.9361737,23.1608073 C80.4372459,22.5477651 79.7145653,21.7310054 78.7685007,20.7084495 C78.4695495,20.3518495 78.2454282,20.0954073 78.0959526,19.9423358 L79.5160632,18.7162514 Z M72.3408645,10.2096296 C72.6398158,10.4658827 73.0884269,10.8993965 73.6863294,11.5126277 C74.2842319,12.0752129 74.7326588,12.5087268 75.0316101,12.8154368 L73.3873782,14.2711286 C72.6398158,13.3012973 71.7921728,12.3556552 70.8461082,11.4357139 L72.3408645,10.2096296 Z"/><path id="Fill-172" fill="#000" d="M90.6851306,11.4006659 L105.681267,11.4006659 L105.681267,13.5117682 L90.6851306,13.5117682 L90.6851306,11.4006659 Z M89.070308,19.298738 L89.070308,17.1876357 L107.450081,17.1876357 L107.450081,19.298738 L98.2216018,19.298738 C96.9396052,21.1246187 95.3498156,23.1578106 93.4537502,25.3986993 C95.1457582,25.3986993 98.0932125,25.2949473 102.297441,25.0860934 C101.476849,23.8869672 100.631035,22.7925573 99.7596185,21.8013208 L101.528622,20.706718 C102.297441,21.5938168 103.47646,23.0525158 105.06606,25.0860934 C105.885514,26.1295916 106.475498,26.8319424 106.834874,27.1971957 L104.912259,28.4483907 L103.758651,26.8845898 C102.01525,26.9356944 99.2466302,27.0666379 95.4533615,27.2754918 C94.6325803,27.3269821 94.0173736,27.3539807 93.6075519,27.3539807 C92.632969,27.4048925 91.786965,27.5101873 91.0697296,27.6665866 L90.069924,25.5550987 C90.7357657,25.1910025 91.4025557,24.6167024 92.0695353,23.8348984 C93.2999486,22.3758137 94.4017829,20.8631174 95.3761762,19.298738 L89.070308,19.298738 Z"/></g></g></g></svg>